<svg xmlns="http://www.w3.org/2000/svg" width="435" height="18" viewBox="0 0 435 18" fill="none">
  <path
    d="M8.58647 3.72955C11.0429 3.38022 14.2189 3.44533 16.6271 3.63409C17.4073 3.6911 17.0201 4.1345 17.5401 4.19399C18.5699 4.30926 19.4814 4.05748 20.5239 4.2047C20.8719 4.25546 20.4736 4.94679 20.8392 4.9846C22.6939 5.19405 24.6061 4.93369 26.4813 4.99014C36.0364 5.25535 45.4258 5.09218 55.0706 4.97608C58.3211 4.93433 62.1233 5.37951 65.4304 4.97049C65.8176 4.92208 65.5607 4.34298 65.6325 4.29125C66.7658 3.49794 66.4255 4.70394 67.1707 4.83026C70.1361 5.32808 73.4348 5.24217 76.3093 4.89327C77.5358 4.74297 76.2643 3.62438 77.5016 4.23022C77.5873 4.27107 77.3093 4.90942 77.641 4.96231C78.3921 5.08104 79.8167 4.90931 80.4081 4.93425C81.5421 4.9857 81.7563 4.97047 82.807 4.93386C84.2471 4.88914 85.9935 5.12829 87.5721 4.92126C87.909 4.87521 87.4344 4.25237 87.97 4.12101C88.4908 3.99041 89.8923 3.98734 90.374 4.11906C90.8549 4.25087 90.6735 4.7632 90.7623 4.87529C91.4926 5.82217 93.0803 4.40458 93.2922 4.36253C97.0755 3.63856 100.402 4.27557 103.993 4.13076C106.755 4.01784 109.61 3.65132 112.236 3.58412C115.3 3.50911 117.974 3.75441 120.954 3.58142C121.271 3.56384 120.871 2.82381 121.257 2.80081C125.376 2.55672 129.476 2.48627 133.575 2.84622C133.987 2.88296 133.482 3.56441 133.896 3.6407C136.428 4.0929 140.451 5.25729 141.84 2.32142C143.549 2.37334 145.623 2.41679 147.162 2.94497C148.156 3.2848 147.228 4.03936 148.423 3.68961C148.693 3.61157 148.317 2.99211 148.723 2.92287C150.435 2.63191 152.321 2.77274 154.006 2.38866C154.349 2.30904 154.235 1.74616 154.33 1.6409C155.125 0.787386 156.543 2.10583 156.845 2.19496C159.152 2.85777 160.792 2.51206 162.915 2.46054C163.407 2.44894 162.801 1.70757 163.273 1.6691C165.729 1.47967 168.267 1.46348 170.684 1.72489C171.221 1.78488 170.75 2.44817 171.007 2.50998C172.144 2.7747 172.355 1.54345 173.443 1.77409C173.673 1.82115 173.561 2.37968 173.605 2.43929C174.285 3.37507 174.807 2.00296 174.974 1.96789C177.077 1.49388 178.472 2.86686 180.51 2.60517C180.753 2.57245 180.181 1.88731 180.867 1.83824C185.441 1.50724 190.284 1.56081 194.838 1.99756C195.546 2.06455 195.057 2.6055 195.103 2.66927C195.854 3.66482 196.284 2.29168 196.512 2.23422C198.313 1.81626 200.035 2.91237 201.227 1.2596C208.911 1.62126 216.53 0.529229 224.191 1.8227C224.288 1.83751 224.129 2.51124 224.322 2.53791C226.644 2.8665 226.183 1.83418 227.702 0.529588C228.085 0.201969 229.296 1.71691 229.402 1.82767C229.79 2.23577 229.415 3.24038 229.544 3.31838C230.607 3.92998 230.375 0.63589 231.79 0.608402C231.835 0.613077 231.66 1.22343 231.78 1.28157C232.152 1.46416 232.511 1.2163 232.881 1.41852C233.726 1.88673 234.051 3.48346 235.304 2.52868C235.462 2.40489 235.187 0.538581 236.456 0.605123C236.964 0.633064 239.185 0.564074 239.827 0.675236C240.459 0.786228 240.035 1.39589 240.081 1.42127C241.789 2.19146 241.151 2.53203 242.015 3.69896C242.878 4.86165 242.602 2.06146 242.941 1.74334C243.282 1.42607 244.523 2.0657 244.827 2.29008C245.132 2.51449 244.761 2.90285 245.031 3.02846C246.844 3.84874 245.804 1.62565 246.392 1.17242C247.779 0.0995924 248.892 2.16498 250.161 2.35321C250.504 2.40406 250.219 1.93387 250.523 1.88589C251.72 1.70234 252.485 2.34239 253.862 1.73248C254.088 1.63305 255.194 0.371022 255.925 1.28139C256.028 1.41267 255.744 1.93371 256.26 2.0447C257.026 2.21131 258.433 2.31154 259.269 2.13118C259.885 1.99774 259.17 1.14988 259.948 1.40858C260.294 1.52415 259.66 2.02896 260.308 2.20445C260.954 2.37982 262.588 2.34541 263.206 2.32393C263.829 2.30194 263.485 1.65662 263.534 1.61264C263.842 1.36047 265.046 1.04028 265.152 1.04045C270.472 0.928292 275.447 2.00517 280.611 1.64488C281.023 1.61758 280.749 0.934471 280.812 0.923264C282.221 0.637754 281.11 2.45314 282.09 3.06173C281.949 1.67557 282.529 1.92687 283.511 1.77633C283.984 1.70268 283.728 1.1656 283.771 1.11072C284.473 0.296683 284.956 1.35068 285.081 1.56634C285.537 2.35967 286.052 1.42479 286.37 1.95529C286.688 2.48183 285.952 3.25895 286.902 3.25174C287.17 2.75639 286.469 1.45763 287.19 1.24969C289.906 0.462072 294.923 1.50748 297.111 1.63098C299.294 1.75348 299.975 1.66858 301.235 1.85971C303.536 2.20643 302.701 1.23626 304.123 0.811033C305.544 0.386387 304.828 2.7457 305.025 3.25675C305.218 3.76758 305.441 3.24654 305.684 3.52899C305.928 3.81138 305.388 4.15105 305.97 4.26285C306.562 4.37455 308.179 3.48989 308.392 2.96068C308.844 1.83934 308.143 0.646739 309.678 1.08303C309.766 1.10889 309.471 1.72733 309.808 1.79482C312.51 2.31077 315.324 2.38442 318.028 2.8561C318.397 2.9219 318.054 3.6083 318.268 3.65443C320.495 4.13754 319.721 2.95605 320.989 1.68288C320.675 3.4032 321.351 4.47156 323.049 4.51598C324.069 4.54346 323.901 3.78615 324.587 3.26909C324.792 3.11319 325.514 3.64625 325.654 3.29472C326.114 2.1457 325.461 0.833558 327.208 1.38891C327.285 1.41517 327.025 2.04384 327.29 2.08819C328.988 2.37802 329.261 1.17184 331.125 1.07008C332.571 0.989767 335.189 1.7965 336.838 1.96225C336.751 3.9009 338.351 3.50068 339.023 2.18163C340.092 2.26693 341.276 2.22614 342.318 2.44276C342.675 2.5167 342.422 3.07106 342.466 3.13311C343.131 4.10604 343.635 2.81952 343.868 2.7757C346.434 2.35957 348.465 3.41407 350.898 2.53427C350.986 2.50263 351.158 1.15986 351.783 2.16673C351.822 2.23603 350.993 2.82023 352.141 2.90846C353.287 2.99665 355.395 3.79704 356.996 3.23349C357.38 3.09766 358.383 2.04137 359.135 2.9266C359.234 3.04669 359.105 3.42848 359.246 3.64934C359.703 4.35333 360.02 3.0025 360.534 4.18146C361.035 5.35984 362.216 6.27489 363.814 5.54265C363.865 5.52154 364.28 4.4582 364.789 4.49684C365.602 4.55945 366.694 4.83158 367.542 4.86166C367.946 4.87562 367.717 4.19443 367.787 4.18525C370.487 3.92781 372.39 4.6129 375.227 5.0059C375.764 5.08007 377.302 4.23773 378.301 5.00958C379.396 5.85463 378.068 9.08565 380.687 8.42785C381.746 8.16545 383.261 4.05838 385.015 6.31222C388.664 5.95774 391.947 7.23503 395.612 6.67054C395.78 6.64588 396.365 5.51101 396.738 5.54788C397.304 5.60555 397.6 6.16807 397.994 6.22667C399.701 6.4892 401.26 6.11578 402.91 6.29483C403.533 6.36165 403.291 6.91008 404.015 6.98999C404.774 7.07216 405.299 6.36438 406.29 6.79606C407.016 7.12344 407.665 8.69316 408.65 8.95339C408.808 7.4666 409.502 7.55257 410.764 7.27711C411.004 7.22339 410.805 6.68117 410.921 6.62907C411.409 6.40693 411.784 6.87886 412.248 6.6347C412.362 6.57634 412.421 6.06912 412.517 5.99283C413.338 5.32404 414.419 6.61099 414.599 6.83518C415.296 7.68661 415.747 7.07503 416.316 7.4504C416.882 7.82592 415.93 8.07856 416.612 8.35087C418.023 8.91441 419.904 9.0944 421.379 9.33847C421.968 9.43269 421.667 8.69846 421.753 8.6963C423.003 8.70852 424.118 9.62039 425.016 8.39197C425.288 11.9969 425.81 8.17166 427.439 9.1758C427.57 9.2574 427.439 10.9204 426.88 11.0676C426.319 11.2143 425.615 10.5662 424.827 10.8213C424.638 10.8799 423.409 12.2573 423.264 12.3302C422.106 12.893 422.332 10.4197 422.298 10.2761C421.884 8.72436 420.422 10.203 420.091 10.2726C418.56 10.5875 417.371 10.0733 416.104 10.2897C415.278 10.4291 414.996 12.0319 414.378 11.9041C412.356 11.4888 411.876 9.15575 409.748 10.9303C409.293 11.3107 409.555 13.1134 408.188 11.5959C408.096 11.4995 407.101 10.1369 406.38 10.8941C406.294 10.9898 406.258 11.5062 406.15 11.5418C405.416 11.7696 404.953 11.3232 404.172 11.4678C403.355 11.61 402.429 11.8447 401.524 11.6121C401.007 11.4744 400.351 10.4681 400.115 10.2174C399.419 9.49388 398.578 10.562 398.158 9.71256C397.741 8.85927 398.712 7.65558 397.549 7.05316C397.428 8.39342 397.247 9.76584 397.098 11.1122C394.464 10.9152 391.893 10.3429 389.242 10.2656C388.911 10.2573 389.212 10.9968 388.855 11.0065C387.354 11.0443 386.111 10.4655 384.533 10.5923C383.349 10.6952 381.99 11.3947 380.737 11.5267C380.034 9.95149 378.146 10.3829 376.829 10.1794C376.363 10.1085 376.413 9.69938 376.083 9.54946C374.831 8.99361 375.358 10.3802 375.002 10.5777C373.506 11.4219 373.467 8.33815 371.742 8.33517C371.652 8.33397 370.44 9.92148 370.275 10.0164C369.238 10.6367 370.125 9.43789 369.517 9.28923C368.417 9.01827 367.594 8.58965 366.272 9.01354C365.882 9.13915 364.909 10.1211 364.174 9.29837C364.077 9.19061 364.156 8.65106 364.076 8.6159C362.673 8.02709 362.558 9.72834 361.704 10.2709C360.836 10.8128 359.637 9.58752 359.385 9.23827C358.74 8.33486 359.921 8.88436 359.959 8.79982C360.429 7.79343 359.5 7.93267 358.785 7.818C358.749 6.14418 357.734 6.205 358.042 7.70586C358.078 7.86985 358.645 7.73605 358.785 7.818C358.084 9.43116 357.003 9.59919 355.85 8.02248C355.312 7.28374 355.863 6.46612 354.141 6.70889C353.364 6.81874 353.621 7.97948 352.924 8.26809C351.312 8.92586 349.34 7.78329 347.684 7.89743C347.099 7.93941 347.645 8.58772 347.247 8.6382C346.189 8.77422 345.263 8.27152 344.17 8.47933C344.07 8.49896 344.29 9.16547 343.952 9.16328C341.457 9.1619 339.269 8.67493 336.611 8.59036C335.35 8.55022 333.045 8.85381 331.74 8.74861C329.473 8.56931 326.681 7.54689 324.708 7.73843C323.412 7.86035 323.697 8.52604 323.143 8.96409C322.084 9.81345 320.239 8.21783 319.987 7.97166C319.98 7.96348 321.089 7.82903 320.505 7.47939C320.175 6.76768 319.999 7.96884 319.987 7.97166C319.81 7.81204 317.655 7.62328 317.211 7.74195C316.973 7.80673 317.094 8.43371 316.971 8.45568C313.998 8.96379 311.087 9.07897 308.134 8.74883C308.082 8.73553 308.17 8.03776 308.047 8.01523C306.324 7.68252 305.211 8.52468 303.796 9.01692C302.38 9.50904 301.222 9.32803 300.413 8.12083C299.354 8.26207 297.823 7.719 296.933 7.39053C296.044 7.06202 295.909 8.42162 295.833 8.44794C293.439 9.29215 291.98 8.50521 289.503 8.37339C288.323 8.30826 285.905 8.49802 284.637 8.64451C283.621 8.76235 283.005 8.4427 282.059 8.64567C281.931 8.67279 282.06 9.2786 282.021 9.30189C280.963 10.0258 281.471 8.54545 281.253 8.28085C280.457 7.3188 279.974 6.80635 278.634 7.25948C278.325 7.36325 277.423 9.49609 276.855 9.62159C276.116 9.78087 276.395 9.01619 275.618 9.20272C275.551 9.218 275.567 9.68939 275.086 9.66961C272.896 9.58392 270.457 9.31822 268.177 9.377C267.866 9.38322 268.269 10.129 267.819 10.1503C265.711 10.2498 263.346 10.2376 261.296 9.90377C260.787 9.81927 261.101 9.29318 260.99 9.13859C260.304 8.2033 259.349 9.57829 259.19 9.60575C255.39 10.296 252.473 9.09051 248.633 9.72838C248.424 9.76556 246.82 11.252 246.072 10.0057C246.022 9.92282 245.277 8.64737 244.665 9.5353C244.627 9.59086 245.079 10.2463 244.305 10.19C243.531 10.1338 242.288 10.5944 241.205 9.88407C240.862 9.6603 240.039 8.39054 239.036 9.42938C238.972 9.50173 237.46 11.8387 236.879 10.2536C236.785 9.99265 236.853 8.30329 235.662 9.18945C235.434 9.36121 235.859 9.73029 235.256 9.97597C234.335 10.3545 233.073 9.92509 231.958 10.6978C231.763 10.8346 230.941 11.9957 230.246 11.1393C230.137 11.0052 230.329 10.438 229.969 10.3818C228.26 10.112 226.457 10.525 224.728 10.1708C224.112 10.0465 224.407 9.12926 223.762 8.89856C223.118 8.66793 221.82 8.46071 221.156 8.89146C220.492 9.32238 221.259 10.7578 220.253 10.8959C215.906 11.4956 211.56 10.7459 207.188 10.7304C206.539 10.728 207.089 11.2339 206.135 11.2677C202.632 11.3938 196.573 12.0425 193.488 11.0245C191.017 10.2089 194.076 9.45028 192.198 9.14278C191.293 8.9964 190.366 10.7112 190.15 10.7705C188.041 11.3703 186.538 10.6659 184.634 10.9512C184.24 11.0104 184.648 11.6828 184.313 11.7257C183.168 11.878 181.952 11.6087 180.856 11.6975C180.365 11.7389 180.471 12.2584 180.017 12.2317C178.93 12.174 177.965 11.9836 176.893 11.5266C176.796 11.4849 177.425 10.8154 176.622 10.8158C175.323 10.8184 173.697 10.3855 172.22 10.9311C171.781 11.095 171.801 12.289 170.822 11.4949C170.617 11.3291 170.826 9.88778 169.755 11.1613C169.575 11.373 167.765 13.1027 166.816 12.0556C166.566 11.7801 165.913 10.6272 165.387 10.8288C165.315 10.8605 165.626 11.4922 165.186 11.5691C163.634 11.8289 162 11.8141 160.409 12.0678C159.985 12.1368 160.642 12.7791 160.008 12.8608C158.27 13.0864 156.07 12.9913 154.355 12.8418C153.722 12.7854 154.139 12.2211 154.091 12.1629C153.32 11.2153 152.93 12.5431 152.688 12.628C151.187 13.1383 149.993 12.5621 148.596 12.774C148.21 12.8309 148.507 13.4473 148.432 13.5058C147.651 14.079 148.207 12.9341 147.697 12.8278C146.267 12.5264 144.692 12.6321 143.254 12.7632C142.727 12.8122 143.346 13.5169 142.873 13.5525C140.077 13.777 137.166 13.8123 134.418 13.512C133.902 13.4541 134.204 12.8834 134.093 12.7597C133.322 11.8936 132.288 13.1513 132.045 13.2764C130.931 13.8479 130.466 13.3703 129.468 13.4996C124.608 14.1394 118.542 14.042 113.929 14.0185C107.892 13.992 103.242 13.6438 97.4831 14.0142C97.1186 14.037 97.5163 14.7655 97.2028 14.7947C93.1818 15.1365 89.1644 15.01 85.093 15.3939C84.7613 15.424 85.2694 16.1088 84.7384 16.1807C83.6532 16.3331 82.2664 16.3525 81.1338 16.1744C80.5847 16.0888 81.2895 15.4536 80.7378 15.3798C79.4482 15.2066 78.124 15.2119 76.8113 15.3804C76.2511 15.4537 77.1294 16.1387 76.3996 16.1778C71.488 16.4566 66.6338 16.7887 61.6773 16.0684C61.3277 16.0193 60.9591 14.5679 60.2426 14.8804C60.2054 15.2893 60.2292 15.7673 60.2241 16.2028C53.0919 16.747 45.9735 16.5521 38.8122 16.7939C38.5135 16.8042 39.0633 17.5571 38.4867 17.5808C35.0935 17.7213 31.8002 18.0856 28.3365 17.4717C27.9816 17.4124 28.0883 16.0395 27.0842 16.2927C26.909 16.3385 25.4055 16.5905 25.0122 16.9058C24.9606 16.953 25.2686 17.5771 24.7772 17.6186C21.9406 17.8476 18.9442 17.8435 16.085 17.5943C15.6395 17.5521 16.0905 16.8498 15.7508 16.815C13.4298 16.5691 10.9025 17.2141 8.69344 16.7267C7.21826 16.4001 7.6739 15.1961 6.8356 14.0946C6.69862 13.9393 5.8485 13.9811 5.73887 13.3192C5.44106 11.6492 5.73665 9.7614 5.37846 7.98462C5.33049 7.79675 5.05194 7.81503 4.48378 7.84445C4.31415 7.86437 4.16185 7.84055 3.56306 8.02431C3.34668 8.14019 2.76687 8.07965 1.63022 9.39751C0.543953 10.847 0.744819 12.038 0.68656 11.9765C0.663914 11.9844 0.624566 12.1967 0.609649 11.7422C0.344779 11.3574 1.90061 8.33716 2.59141 8.17174C4.22346 7.19441 4.10862 7.41274 4.41986 7.18563C4.75217 7.05944 5.72607 6.66611 5.95049 6.33166C6.09187 6.10055 5.74972 5.43995 6.06272 5.13468C6.40865 4.82773 6.78254 5.37717 7.30032 5.01327C7.82826 4.64527 7.55349 3.88156 8.58647 3.72955ZM292.968 5.92568C292.15 5.26776 292.015 7.65982 292.907 7.09234C292.95 7.06208 293.01 5.95797 292.968 5.92568ZM391.994 8.54252C391.006 7.43343 390.164 8.9437 390.888 9.79768C391.604 10.6504 392.297 8.87896 391.994 8.54252ZM403.115 8.41311C401.925 7.50223 401.522 10.8767 402.883 10.277C402.965 10.2435 403.185 8.46615 403.115 8.41311ZM10.4467 13.5484C10.4272 13.5176 9.76145 13.5232 9.75399 13.5553C9.44818 14.3333 10.7713 14.3218 10.4467 13.5484ZM414.101 8.53344C413.771 8.03002 412.596 8.42875 413.011 9.05073C413.343 9.54997 414.51 9.15837 414.101 8.53344ZM250.21 3.52066C250.197 3.48516 249.724 3.45887 249.736 3.6603C249.777 4.30898 250.431 4.11773 250.21 3.52066ZM432.354 11.6413C430.018 10.7248 428.665 7.68388 431.742 8.71543C432.284 8.9138 430.332 9.28469 430.971 9.70268C432.035 10.4513 433.72 9.04019 434.529 10.7502C434.607 10.9869 432.426 11.6242 432.349 11.6434C432.351 11.6427 432.352 11.642 432.354 11.6413ZM292.51 3.04905C292.494 3.0173 291.832 2.98375 291.816 3.01505C291.453 3.77277 292.787 3.84078 292.51 3.04905ZM222.445 2.51379C222.408 2.44708 220.876 2.41685 220.827 2.48011C220.055 3.73919 223.152 3.80395 222.445 2.51379ZM336.863 2.01472C337.612 1.27073 338.477 1.20502 339.02 2.18056C338.31 2.10934 337.589 2.08164 336.863 2.01472Z"
    fill="#384084" />
</svg>