<svg width="25" height="25" viewBox="0 0 25 25" fill="none" xmlns="http://www.w3.org/2000/svg">
<g clip-path="url(#clip0_39_155)">
<path d="M6.5 17C6.5 16.6022 6.65804 16.2206 6.93934 15.9393C7.22064 15.658 7.60218 15.5 8 15.5C8.39782 15.5 8.77936 15.658 9.06066 15.9393C9.34196 16.2206 9.5 16.6022 9.5 17V18.5C9.5 18.8978 9.34196 19.2794 9.06066 19.5607C8.77936 19.842 8.39782 20 8 20C7.60218 20 7.22064 19.842 6.93934 19.5607C6.65804 19.2794 6.5 18.8978 6.5 18.5V17ZM15.5 11C15.5 10.6022 15.658 10.2206 15.9393 9.93934C16.2206 9.65804 16.6022 9.5 17 9.5C17.3978 9.5 17.7794 9.65804 18.0607 9.93934C18.342 10.2206 18.5 10.6022 18.5 11V18.5C18.5 18.8978 18.342 19.2794 18.0607 19.5607C17.7794 19.842 17.3978 20 17 20C16.6022 20 16.2206 19.842 15.9393 19.5607C15.658 19.2794 15.5 18.8978 15.5 18.5V11ZM11 14C11 13.6022 11.158 13.2206 11.4393 12.9393C11.7206 12.658 12.1022 12.5 12.5 12.5C12.8978 12.5 13.2794 12.658 13.5607 12.9393C13.842 13.2206 14 13.6022 14 14V18.5C14 18.8978 13.842 19.2794 13.5607 19.5607C13.2794 19.842 12.8978 20 12.5 20C12.1022 20 11.7206 19.842 11.4393 19.5607C11.158 19.2794 11 18.8978 11 18.5V14Z" fill="#ACACAC"/>
<path d="M6.5 2.75H5C4.20435 2.75 3.44129 3.06607 2.87868 3.62868C2.31607 4.19129 2 4.95435 2 5.75V21.5C2 22.2956 2.31607 23.0587 2.87868 23.6213C3.44129 24.1839 4.20435 24.5 5 24.5H20C20.7956 24.5 21.5587 24.1839 22.1213 23.6213C22.6839 23.0587 23 22.2956 23 21.5V5.75C23 4.95435 22.6839 4.19129 22.1213 3.62868C21.5587 3.06607 20.7956 2.75 20 2.75H18.5V4.25H20C20.3978 4.25 20.7794 4.40804 21.0607 4.68934C21.342 4.97064 21.5 5.35218 21.5 5.75V21.5C21.5 21.8978 21.342 22.2794 21.0607 22.5607C20.7794 22.842 20.3978 23 20 23H5C4.60218 23 4.22064 22.842 3.93934 22.5607C3.65804 22.2794 3.5 21.8978 3.5 21.5V5.75C3.5 5.35218 3.65804 4.97064 3.93934 4.68934C4.22064 4.40804 4.60218 4.25 5 4.25H6.5V2.75Z" fill="#ACACAC"/>
<path d="M14.75 2C14.9489 2 15.1397 2.07902 15.2803 2.21967C15.421 2.36032 15.5 2.55109 15.5 2.75V4.25C15.5 4.44891 15.421 4.63968 15.2803 4.78033C15.1397 4.92098 14.9489 5 14.75 5H10.25C10.0511 5 9.86032 4.92098 9.71967 4.78033C9.57902 4.63968 9.5 4.44891 9.5 4.25V2.75C9.5 2.55109 9.57902 2.36032 9.71967 2.21967C9.86032 2.07902 10.0511 2 10.25 2H14.75ZM10.25 0.5C9.65326 0.5 9.08097 0.737053 8.65901 1.15901C8.23705 1.58097 8 2.15326 8 2.75V4.25C8 4.84674 8.23705 5.41903 8.65901 5.84099C9.08097 6.26295 9.65326 6.5 10.25 6.5H14.75C15.3467 6.5 15.919 6.26295 16.341 5.84099C16.7629 5.41903 17 4.84674 17 4.25V2.75C17 2.15326 16.7629 1.58097 16.341 1.15901C15.919 0.737053 15.3467 0.5 14.75 0.5H10.25Z" fill="#ACACAC"/>
</g>
<defs>
<clipPath id="clip0_39_155">
<rect width="24" height="24" fill="white" transform="translate(0.5 0.5)"/>
</clipPath>
</defs>
</svg>
