<svg width="181" height="35" viewBox="0 0 181 35" fill="none" xmlns="http://www.w3.org/2000/svg">
<path d="M28.0827 27.0628C28.0827 25.4493 27.5927 23.9512 26.7544 22.7116C27.186 22.7874 27.63 22.8269 28.0829 22.8269C32.3237 22.8269 35.7616 19.3626 35.7616 15.0892C35.7616 10.8159 32.3237 7.35164 28.0829 7.35164C26.193 7.35164 24.4625 8.03966 23.1248 9.18073C23.142 8.96875 23.1509 8.75437 23.1509 8.5379C23.1509 4.26454 19.713 0.800293 15.4723 0.800293C11.2315 0.800293 7.79364 4.26454 7.79364 8.5379C7.79364 10.0428 8.21995 11.4473 8.95753 12.6355C8.57789 12.5773 8.18914 12.5472 7.79338 12.5472C3.55259 12.5472 0.114746 16.0114 0.114746 20.2848C0.114746 24.5581 3.55259 28.0225 7.79338 28.0225C9.69471 28.0225 11.4346 27.326 12.7757 26.1725C12.7425 26.4647 12.7254 26.7616 12.7254 27.0628C12.7254 31.3361 16.1633 34.8003 20.4041 34.8003C24.6449 34.8003 28.0827 31.3361 28.0827 27.0628Z" fill="#3E4CF7"/>
<path fill-rule="evenodd" clip-rule="evenodd" d="M58.3864 32.028C50.1721 32.028 43.5672 25.4656 43.5672 17.5267C43.5672 9.58789 50.1721 3.14547 58.3864 3.14547C63.5108 3.14547 67.9977 5.61512 70.6661 9.34458L65.4999 12.7874C63.9741 10.5178 61.7307 9.14128 58.6825 9.14128C53.7706 9.14128 50.2557 12.9074 50.2557 17.5267C50.2557 22.1461 53.6418 26.0355 58.6407 26.0355C61.7307 26.0355 63.9776 24.6591 65.4999 22.3894L70.6661 25.8322C67.9977 29.5584 63.5108 32.0314 58.3864 32.0314V32.028ZM80.7929 20.643V25.9889H93.2397V31.5381H74.1426V3.63207H92.8565V9.18128H80.7894V14.9338H91.3759V20.6463H80.7894L80.7929 20.643ZM110.024 3.14547C101.68 3.14547 95.1174 9.66787 95.1174 17.5668C95.1174 25.4656 101.68 32.028 110.024 32.028C118.367 32.028 124.885 25.4656 124.885 17.5668C124.885 9.66787 118.238 3.14547 110.024 3.14547ZM109.982 26.0322C105.07 26.0322 101.809 22.2228 101.809 17.5668C101.809 12.9107 105.07 9.14128 109.982 9.14128C114.894 9.14128 118.196 12.9074 118.196 17.5668C118.196 22.226 114.852 26.0322 109.982 26.0322ZM125.783 29.1517L128.981 24.3391L129.243 24.5324C131.193 25.9689 133.621 26.8555 135.726 26.8555C136.945 26.8555 137.931 26.5721 138.603 26.1055C139.268 25.6423 139.638 24.9957 139.638 24.2125C139.638 23.5725 139.387 23.0227 138.756 22.4793C138.112 21.9228 137.081 21.3796 135.537 20.7763H135.53L134.384 20.2997C131.855 19.3198 130.016 18.2066 128.807 16.8635C127.591 15.5104 127.034 13.9373 127.034 12.0809C127.034 9.64121 127.985 7.59816 129.668 6.16837C131.347 4.74191 133.733 3.94536 136.569 3.94536C139.645 3.94536 143.114 4.87522 145.316 6.26503L145.556 6.41834L142.532 11.2243L142.275 11.0843C140.23 9.96116 138.408 9.40125 136.833 9.40125C135.771 9.40125 134.879 9.66454 134.262 10.0978C133.649 10.5277 133.304 11.121 133.304 11.8242C133.304 12.4041 133.548 12.9341 134.214 13.4907C134.889 14.0573 135.98 14.6405 137.642 15.2971L138.979 15.847C141.397 16.8102 143.149 17.8934 144.299 19.2099C145.455 20.533 145.981 22.0661 145.981 23.8859C145.981 26.4388 144.95 28.5718 143.156 30.0649C141.365 31.5548 138.84 32.3846 135.872 32.3846C132.326 32.3846 128.504 31.1948 125.992 29.3184L125.776 29.1551L125.783 29.1517Z" fill="black"/>
<path d="M162.734 18.7438C162.734 19.0285 162.554 19.3489 162.411 19.4735C161.981 19.865 162.088 20.8083 160.995 23.033C159.615 25.8985 157.303 30.9174 157.178 31.042C157.07 31.1666 156.801 31.2378 156.55 31.2378C156.389 31.2378 156.246 31.22 156.138 31.1488C155.941 31.0242 154.633 26.4146 152.59 21.7694C152.374 21.2711 151.747 20.7727 151.747 20.2566C151.747 19.9362 152.07 19.4913 152.446 19.4913C153.504 19.4913 154.274 23.567 155.421 26.2366C156.031 27.6426 156.228 28.3012 156.73 29.4936C156.73 29.4936 159.257 24.6526 160.44 21.983C160.977 20.7549 161.264 19.4557 161.264 19.3489C161.264 19.0107 161.622 18.1742 162.16 18.1742C162.447 18.1742 162.734 18.4234 162.734 18.7438Z" fill="#B0B0B0"/>
<path d="M163.624 24.884C163.48 24.884 162.083 25.0798 161.168 27.7672C161.097 27.963 161.061 28.2122 161.061 28.4613C161.061 29.1021 161.401 30.2589 162.226 30.2589C163.05 30.2589 164.179 29.28 164.52 28.6393C164.825 28.052 165.04 27.4291 165.04 26.8062C165.04 26.0231 164.61 24.884 163.624 24.884ZM165.936 27.0197C165.936 29.5648 163.534 31.1844 162.029 31.1844C160.756 31.1844 160.093 29.6538 160.093 28.4791C160.093 28.0164 160.183 27.5537 160.398 27.0731C161.401 24.8128 162.441 23.8695 163.48 23.8695C164.197 23.8695 165.703 24.4924 165.9 26.4324C165.918 26.646 165.936 26.824 165.936 27.0197Z" fill="#B0B0B0"/>
<path d="M173.915 23.567C173.915 23.8339 173.718 23.8873 173.485 23.8873C173.27 23.8873 173.019 23.8339 172.876 23.8339C171.764 23.8339 170.528 24.0831 169.883 24.2255C169.865 24.4391 169.488 27.3045 169.488 29.6716C169.488 29.9742 169.488 30.2767 169.506 30.5437C169.506 30.6149 169.596 30.864 169.596 31.0776C169.596 31.309 169.506 31.5048 169.166 31.5048H169.094C168.556 31.4692 168.467 30.8106 168.467 30.5259C168.467 29.725 168.467 28.6215 168.664 26.8062C168.789 25.5425 168.861 25.1866 168.951 24.4213C168.951 24.4213 168.072 24.617 167.427 24.9196C167.123 25.062 166.513 25.6137 166.191 25.6137C165.993 25.6137 165.635 25.3467 165.635 25.0976C165.635 25.062 165.635 25.0264 165.653 24.973C165.742 24.706 165.778 24.5814 166.764 24.2077C167.786 23.8161 168.019 23.7271 169.094 23.4424C169.094 23.4424 169.524 20.6303 169.524 20.0252C169.524 19.7226 169.488 19.4735 169.488 19.2243C169.488 18.8506 169.56 18.5302 169.9 18.5302C170.241 18.5302 170.456 18.8684 170.456 19.8116C170.456 20.0786 170.438 20.399 170.402 20.7727C170.295 21.8406 170.187 22.1253 170.026 23.2822C170.026 23.2822 171.101 23.0508 172.374 23.0508C172.535 23.0508 172.696 23.0686 172.858 23.0686C173.234 23.0864 173.879 23.0686 173.915 23.567Z" fill="#B0B0B0"/>
<path d="M176.584 24.617C175.921 24.617 175.258 24.7772 174.613 25.1154C173.699 25.5781 173.143 26.3078 173.143 26.3078C173.143 26.3078 174.147 26.2544 175.258 25.5781C175.724 25.3111 176.028 25.1154 176.584 24.617ZM180.115 27.696C180.115 27.9452 179.936 28.2122 179.703 28.3724C179.308 28.5859 176.423 31.2022 174.398 31.2022C174.111 31.2022 173.842 31.1488 173.609 31.042C172.444 30.5081 171.62 29.1021 171.62 27.785C171.62 27.5715 171.637 27.3579 171.691 27.1443C172.157 25.1332 174.469 23.7627 176.351 23.7627C176.942 23.7627 177.462 23.8873 177.892 24.1721C177.946 24.2077 177.964 24.2433 177.964 24.2967C177.964 24.7416 176.441 25.8807 175.419 26.4858C174.308 27.1621 173.215 27.2689 172.713 27.3045C172.713 27.3045 172.659 27.5003 172.659 27.8206C172.659 28.1944 172.749 28.7461 173.143 29.3512C173.466 29.8674 173.806 30.2945 174.595 30.2945C176.011 30.2945 178.788 28.0342 178.968 27.785C179.075 27.5893 179.272 27.1265 179.577 27.1265C179.846 27.1265 180.115 27.3935 180.115 27.696Z" fill="#B0B0B0"/>
</svg>
