<svg width="320" height="112" viewBox="0 0 320 112" fill="none" xmlns="http://www.w3.org/2000/svg">
    <g clip-path="url(#clip0_30_332)">
        <path
            d="M67.2776 63.2123C67.2776 59.3578 66.1021 55.7789 64.0909 52.8174C65.1262 52.9985 66.1914 53.0929 67.2781 53.0929C77.4527 53.0929 85.7011 44.8167 85.7011 34.6077C85.7011 24.3987 77.4527 16.1227 67.2781 16.1227C62.7438 16.1227 58.5921 17.7664 55.3825 20.4924C55.4239 19.986 55.4452 19.4738 55.4452 18.9567C55.4452 8.7477 47.197 0.47168 37.0224 0.47168C26.8478 0.47168 18.5997 8.7477 18.5997 18.9567C18.5997 22.5518 19.6225 25.9072 21.3921 28.7458C20.4813 28.6068 19.5486 28.5347 18.599 28.5347C8.42443 28.5347 0.17627 36.8108 0.17627 47.0198C0.17627 57.2287 8.42443 65.505 18.599 65.505C23.1607 65.505 27.3352 63.8411 30.5527 61.0855C30.4731 61.7835 30.4321 62.4929 30.4321 63.2123C30.4321 73.4213 38.6803 81.6971 48.8551 81.6971C59.0297 81.6971 67.2776 73.4213 67.2776 63.2123Z"
            fill="#3E4CF7" />
    </g>
    <g clip-path="url(#clip1_30_332)">
        <path fill-rule="evenodd" clip-rule="evenodd"
            d="M133.544 71.732C116.059 71.732 102 57.5925 102 40.4869C102 23.3816 116.059 9.50049 133.544 9.50049C144.452 9.50049 154.003 14.8217 159.683 22.8574L148.686 30.2755C145.438 25.3851 140.663 22.4193 134.175 22.4193C123.719 22.4193 116.237 30.534 116.237 40.4869C116.237 50.4401 123.445 58.8204 134.086 58.8204C140.663 58.8204 145.446 55.8547 148.686 50.9643L159.683 58.3823C154.003 66.4109 144.452 71.7394 133.544 71.7394V71.732ZM181.239 47.2014V58.7199H207.734V70.6765H167.083V10.5489H206.918V22.5055H181.232V34.9001H203.766V47.2085H181.232L181.239 47.2014ZM243.46 9.50049C225.701 9.50049 211.73 23.5539 211.73 40.5733C211.73 57.5925 225.701 71.732 243.46 71.732C261.22 71.732 275.093 57.5925 275.093 40.5733C275.093 23.5539 260.945 9.50049 243.46 9.50049ZM243.371 58.8134C232.916 58.8134 225.975 50.6052 225.975 40.5733C225.975 30.5412 232.916 22.4193 243.371 22.4193C253.826 22.4193 260.856 30.534 260.856 40.5733C260.856 50.6123 253.738 58.8134 243.371 58.8134ZM277.006 65.5347L283.814 55.1651L284.37 55.5817C288.522 58.6769 293.691 60.5871 298.17 60.5871C300.765 60.5871 302.863 59.9765 304.295 58.9711C305.711 57.9731 306.497 56.58 306.497 54.8924C306.497 53.5135 305.963 52.3288 304.621 51.1581C303.249 49.959 301.054 48.7885 297.769 47.4886H297.754L295.315 46.4617C289.931 44.3504 286.016 41.9519 283.443 39.0579C280.855 36.1425 279.669 32.753 279.669 28.7531C279.669 23.4965 281.693 19.0945 285.274 16.0138C288.849 12.9403 293.928 11.224 299.964 11.224C306.512 11.224 313.897 13.2275 318.584 16.222L319.095 16.5524L312.659 26.9075L312.11 26.6059C307.758 24.1859 303.879 22.9795 300.528 22.9795C298.266 22.9795 296.368 23.5468 295.055 24.4803C293.75 25.4067 293.016 26.6849 293.016 28.2001C293.016 29.4496 293.535 30.5915 294.951 31.7907C296.39 33.0115 298.711 34.2682 302.248 35.6829L305.095 36.8678C310.241 38.9432 313.971 41.277 316.418 44.1136C318.88 46.9644 320 50.2677 320 54.1886C320 59.6893 317.805 64.2852 313.986 67.5024C310.175 70.7125 304.799 72.5004 298.481 72.5004C290.932 72.5004 282.798 69.9368 277.451 65.8938L276.992 65.542L277.006 65.5347Z"
            fill="black" />
    </g>
    <path
        d="M154.099 89.92H159.955C163.555 89.92 165.331 91.408 165.331 93.784V94.384C165.331 95.704 164.611 96.784 163.387 97.408V97.984C164.875 98.536 165.931 99.64 165.931 101.464V101.92C165.931 104.536 164.011 106 160.267 106H154.099V89.92ZM156.379 91.792V96.952H160.075C162.259 96.952 163.051 95.944 163.051 94.576V94.072C163.051 92.68 162.259 91.792 159.955 91.792H156.379ZM156.379 98.752V104.128H160.267C162.667 104.128 163.651 103.312 163.651 101.704V101.224C163.651 99.688 162.667 98.752 160.099 98.752H156.379ZM178.493 106H176.333V104.584H175.853C175.133 105.664 173.957 106.24 172.565 106.24H172.325C170.045 106.24 168.221 104.704 168.221 101.44V94H170.381V101.08C170.381 103.288 171.485 104.32 173.237 104.32H173.477C175.229 104.32 176.333 103.288 176.333 101.08V94H178.493V106ZM181.612 94H183.772V106H181.612V94ZM182.644 89.056H182.764C183.436 89.056 183.964 89.584 183.964 90.232C183.964 90.976 183.436 91.48 182.764 91.48H182.644C181.948 91.48 181.444 90.976 181.444 90.232C181.444 89.584 181.948 89.056 182.644 89.056ZM186.651 88.24H188.811V106H186.651V88.24ZM200.33 88.24H202.49V106H200.33V104.584H199.85C198.986 105.76 197.69 106.24 196.37 106.24H196.13C193.418 106.24 191.45 104.44 191.45 100.72V99.28C191.45 95.584 193.418 93.76 196.13 93.76H196.37C197.69 93.76 198.986 94.24 199.85 95.416H200.33V88.24ZM196.85 95.56C194.786 95.56 193.61 96.88 193.61 99.28V100.72C193.61 103.144 194.786 104.44 196.85 104.44H197.09C199.154 104.44 200.33 103.144 200.33 100.72V99.28C200.33 96.88 199.178 95.56 197.09 95.56H196.85ZM211.017 90.4H213.177V94H218.145V95.8H213.177V102.472C213.177 103.768 213.777 104.44 214.929 104.44H215.169C216.321 104.44 216.897 103.768 216.897 102.472V101.032H218.937V102.472C218.937 105.112 217.401 106.24 215.169 106.24H214.929C212.721 106.24 211.017 105.112 211.017 102.472V95.8H209.337V94H211.017V90.4ZM221.221 88.24H223.381V95.416H223.861C224.581 94.336 225.757 93.76 227.149 93.76H227.389C229.669 93.76 231.493 95.296 231.493 98.56V106H229.333V98.92C229.333 96.712 228.229 95.68 226.477 95.68H226.237C224.485 95.68 223.381 96.712 223.381 98.92V106H221.221V88.24ZM239.365 93.76H239.605C242.629 93.76 245.029 95.584 245.029 99.28V100.672H236.173C236.173 103.192 237.373 104.44 239.365 104.44H239.605C241.645 104.44 242.509 103.504 242.845 102.28H244.885C244.501 104.824 242.629 106.24 239.605 106.24H239.365C236.365 106.24 234.013 104.44 234.013 100.72V99.28C234.013 95.584 236.365 93.76 239.365 93.76ZM239.365 95.56C237.421 95.56 236.245 96.712 236.173 98.872H242.869C242.797 96.712 241.501 95.56 239.605 95.56H239.365ZM257.714 88H257.954C260.618 88 262.01 89.416 262.01 91.912V92.248H259.97V91.912C259.97 90.52 259.346 89.8 257.954 89.8H257.714C256.418 89.8 255.698 90.52 255.698 91.912V94H259.01V95.8H255.698V106H253.538V95.8H251.618V94H253.538V91.912C253.538 89.416 255.05 88 257.714 88ZM270.602 106H268.442V104.584H267.962C267.242 105.664 266.066 106.24 264.674 106.24H264.434C262.154 106.24 260.33 104.704 260.33 101.44V94H262.49V101.08C262.49 103.288 263.594 104.32 265.346 104.32H265.586C267.338 104.32 268.442 103.288 268.442 101.08V94H270.602V106ZM274.321 90.4H276.481V94H281.449V95.8H276.481V102.472C276.481 103.768 277.081 104.44 278.233 104.44H278.473C279.625 104.44 280.201 103.768 280.201 102.472V101.032H282.241V102.472C282.241 105.112 280.705 106.24 278.473 106.24H278.233C276.025 106.24 274.321 105.112 274.321 102.472V95.8H272.641V94H274.321V90.4ZM294.438 106H292.278V104.584H291.798C291.078 105.664 289.902 106.24 288.51 106.24H288.27C285.99 106.24 284.166 104.704 284.166 101.44V94H286.326V101.08C286.326 103.288 287.43 104.32 289.182 104.32H289.422C291.174 104.32 292.278 103.288 292.278 101.08V94H294.438V106ZM297.557 94H299.717V95.296H300.197C300.773 94.36 301.637 93.76 302.981 93.76C304.973 93.76 306.221 95.008 306.221 98.032V98.536H304.181V98.392C304.181 96.736 303.581 95.68 301.949 95.68C300.317 95.68 299.717 96.736 299.717 98.392V106H297.557V94ZM313.146 93.76H313.386C316.41 93.76 318.81 95.584 318.81 99.28V100.672H309.954C309.954 103.192 311.154 104.44 313.146 104.44H313.386C315.426 104.44 316.29 103.504 316.626 102.28H318.666C318.282 104.824 316.41 106.24 313.386 106.24H313.146C310.146 106.24 307.794 104.44 307.794 100.72V99.28C307.794 95.584 310.146 93.76 313.146 93.76ZM313.146 95.56C311.202 95.56 310.026 96.712 309.954 98.872H316.65C316.578 96.712 315.282 95.56 313.386 95.56H313.146Z"
        fill="#979797" />
    <defs>
        <clipPath id="clip0_30_332">
            <rect width="86" height="82" fill="white" />
        </clipPath>
        <clipPath id="clip1_30_332">
            <rect width="218" height="63" fill="white" transform="translate(102 9.5)" />
        </clipPath>
    </defs>
</svg>