<svg width="64" height="64" viewBox="0 0 64 64" fill="none" xmlns="http://www.w3.org/2000/svg">
    <g clip-path="url(#clip0_65_262)">
        <path
            d="M50.067 48.524C50.067 45.6566 49.1922 42.9942 47.6954 40.7912C48.4659 40.9259 49.2587 40.9961 50.0673 40.9961C57.6391 40.9961 63.7775 34.8395 63.7775 27.245C63.7775 19.6505 57.6391 13.4939 50.0673 13.4939C46.693 13.4939 43.6033 14.7167 41.2148 16.7445C41.2456 16.3678 41.2615 15.9868 41.2615 15.6021C41.2615 8.00762 35.1233 1.85107 27.5515 1.85107C19.9797 1.85107 13.8415 8.00762 13.8415 15.6021C13.8415 18.2765 14.6027 20.7726 15.9196 22.8843C15.2418 22.7809 14.5477 22.7272 13.8411 22.7272C6.26927 22.7272 0.131104 28.8838 0.131104 36.4783C0.131104 44.0727 6.26927 50.2295 13.8411 50.2295C17.2358 50.2295 20.3424 48.9918 22.7368 46.9419C22.6776 47.4611 22.6471 47.9888 22.6471 48.524C22.6471 56.1185 28.7852 62.2749 36.3572 62.2749C43.929 62.2749 50.067 56.1185 50.067 48.524Z"
            fill="#3E4CF7" />
    </g>
    <defs>
        <clipPath id="clip0_65_262">
            <rect width="64" height="61" fill="white" transform="translate(0 1.5)" />
        </clipPath>
    </defs>
</svg>